<?xml version="1.0" standalone="no"?>
<!DOCTYPE svg PUBLIC "-//W3C//DTD SVG 20010904//EN"
 "http://www.w3.org/TR/2001/REC-SVG-20010904/DTD/svg10.dtd">
<svg version="1.0" xmlns="http://www.w3.org/2000/svg"
 width="992.000000pt" height="992.000000pt" viewBox="0 0 992.000000 992.000000"
 preserveAspectRatio="xMidYMid meet">
<metadata>
Created by potrace 1.14, written by Peter Selinger 2001-2017
</metadata>
<g transform="translate(0.000000,992.000000) scale(0.100000,-0.100000)"
fill="#000000" stroke="none">
<path d="M8690 9058 c-14 -6 -51 -23 -82 -37 -32 -14 -58 -29 -58 -33 0 -5 -5
-8 -10 -8 -13 0 -103 -66 -189 -139 -36 -30 -72 -60 -79 -66 -7 -5 -21 -17
-30 -26 -9 -8 -51 -42 -92 -75 -41 -32 -76 -62 -78 -66 -2 -5 -10 -8 -17 -8
-7 0 -15 -4 -17 -9 -3 -9 -92 -78 -203 -156 -39 -27 -75 -54 -81 -60 -6 -5
-22 -17 -34 -25 -32 -21 -123 -87 -137 -100 -7 -5 -16 -10 -21 -10 -5 0 -17
-9 -27 -20 -10 -11 -24 -20 -31 -20 -7 0 -14 -4 -16 -8 -1 -5 -39 -33 -83 -62
-44 -29 -81 -57 -83 -62 -2 -4 -8 -8 -13 -8 -6 0 -43 -22 -84 -50 -41 -27 -78
-50 -84 -50 -5 0 -11 -4 -13 -8 -5 -13 -192 -123 -283 -167 -102 -48 -359
-144 -430 -160 -11 -2 -51 -14 -90 -26 -85 -25 -99 -29 -246 -68 -63 -16 -126
-32 -140 -35 -13 -2 -31 -7 -39 -10 -8 -3 -26 -8 -40 -10 -14 -3 -70 -17 -125
-31 -84 -21 -464 -112 -499 -120 -27 -5 -77 -18 -161 -42 -49 -14 -94 -26
-100 -28 -45 -10 -74 -18 -95 -25 -23 -8 -199 -63 -210 -65 -3 -1 -16 -6 -30
-12 -14 -6 -45 -18 -70 -26 -193 -66 -413 -184 -545 -291 -86 -70 -200 -189
-264 -275 -57 -78 -161 -269 -161 -298 0 -7 -4 -21 -9 -31 -13 -23 -42 -120
-46 -152 -2 -14 -4 -25 -5 -25 -1 0 -3 -9 -5 -20 -2 -11 -7 -36 -11 -55 -7
-37 -8 -43 -19 -190 -12 -151 -8 -377 9 -455 17 -80 29 -122 52 -186 24 -66
108 -270 154 -374 9 -22 30 -69 45 -105 15 -36 34 -80 42 -98 17 -40 17 -41
-41 -126 -25 -37 -46 -71 -46 -76 0 -4 -3 -10 -7 -12 -5 -1 -26 -25 -48 -53
-48 -60 -159 -174 -235 -240 -58 -50 -70 -60 -165 -140 -33 -27 -65 -54 -71
-60 -6 -5 -37 -32 -69 -60 -32 -27 -72 -63 -90 -80 -18 -16 -61 -55 -96 -87
-35 -31 -78 -69 -95 -85 -16 -15 -57 -52 -90 -82 -65 -60 -260 -241 -334 -311
-43 -41 -210 -197 -286 -266 -17 -16 -77 -72 -134 -124 -56 -52 -106 -97 -111
-100 -4 -3 -45 -40 -91 -82 -105 -97 -215 -185 -251 -201 -15 -6 -27 -15 -27
-18 0 -3 -6 -6 -12 -6 -7 -1 -42 -8 -78 -17 -54 -13 -111 -15 -330 -11 -664
12 -678 11 -765 -14 -49 -14 -135 -53 -135 -61 0 -4 -8 -10 -18 -12 -36 -10
-118 -127 -149 -213 -23 -63 -25 -76 -29 -141 -2 -53 1 -78 20 -154 12 -44 71
-126 138 -190 61 -58 79 -74 92 -80 6 -3 38 -23 71 -44 52 -35 286 -156 299
-156 3 0 29 -11 58 -24 30 -14 78 -34 108 -46 30 -12 66 -27 80 -33 14 -5 34
-12 44 -14 11 -2 24 -7 30 -12 6 -4 81 -32 166 -61 85 -28 162 -55 170 -58 8
-3 20 -6 25 -7 6 -2 42 -12 80 -25 39 -12 77 -23 85 -25 8 -3 33 -9 55 -15 22
-6 58 -16 80 -21 22 -6 47 -12 55 -15 61 -15 200 -47 225 -50 114 -16 177 -19
390 -19 215 1 326 6 392 19 11 3 43 8 70 11 26 4 62 13 80 20 17 7 34 11 37 8
3 -3 12 0 21 7 8 7 15 9 15 5 0 -4 6 -3 13 2 6 6 30 16 52 23 57 18 244 114
319 165 35 23 68 44 74 46 5 2 22 14 38 26 138 108 566 403 583 403 5 0 11 3
13 8 3 8 152 96 332 197 l120 66 492 4 c473 4 675 10 739 21 17 3 39 7 50 9
81 11 273 96 378 167 103 70 194 176 240 278 25 56 55 143 60 175 3 17 10 50
15 75 6 25 13 65 17 90 3 25 8 56 10 70 2 14 7 46 10 73 35 308 39 328 58 322
7 -2 32 -7 57 -10 82 -12 90 -13 132 -20 24 -4 52 -9 63 -12 72 -17 346 -16
374 1 5 3 24 8 42 11 53 7 107 22 159 42 8 4 17 7 20 8 118 40 276 144 351
231 25 30 68 97 94 151 62 124 98 159 208 202 89 34 182 88 227 133 118 116
165 255 120 356 -11 24 -26 50 -35 58 -33 33 -37 53 -14 71 12 10 31 27 43 38
12 11 44 38 71 60 114 92 229 226 267 311 28 65 30 78 32 198 2 75 6 111 14
114 7 2 12 9 12 15 0 12 56 41 140 73 124 48 286 145 420 252 78 62 240 222
240 236 0 4 9 16 20 28 35 37 82 149 95 226 12 66 12 92 0 157 -6 36 -33 89
-67 135 -19 25 -37 53 -41 63 -9 24 14 68 75 142 27 33 56 68 64 78 7 9 11 17
8 17 -3 0 6 15 20 33 15 19 26 41 26 50 0 10 5 17 10 17 6 0 10 9 10 19 0 11
4 22 9 25 12 8 34 127 33 189 0 76 -11 164 -29 227 -15 52 -59 149 -72 160 -3
3 -19 20 -34 38 -33 41 -36 95 -7 132 11 14 20 29 20 33 0 4 27 50 60 103 33
52 60 102 60 110 0 7 3 14 8 14 8 0 32 48 32 64 0 5 6 17 13 25 11 13 35 78
37 103 0 4 7 25 14 46 22 61 15 197 -12 249 -61 117 -177 175 -298 149 -37 -8
-160 -70 -203 -103 -37 -28 -195 -155 -206 -166 -7 -7 -22 -19 -35 -27 -31
-21 -123 -88 -137 -100 -7 -6 -43 -26 -81 -46 -84 -44 -89 -42 -164 54 -61 77
-78 105 -78 127 0 18 72 164 102 208 11 15 16 27 12 27 -4 0 0 8 9 18 30 34
137 262 158 339 46 166 9 334 -93 416 -30 24 -48 30 -100 33 -35 2 -74 -1 -88
-8z m44 -325 c-7 -71 -99 -281 -183 -413 -38 -61 -122 -176 -167 -230 -44 -53
-213 -220 -273 -270 -29 -25 -59 -50 -65 -55 -28 -26 -196 -154 -241 -185 -27
-18 -52 -37 -55 -40 -7 -9 -141 -94 -230 -147 -41 -24 -82 -48 -90 -53 -43
-26 -242 -125 -295 -147 -33 -14 -78 -33 -100 -43 -22 -9 -53 -23 -70 -30 -43
-17 -187 -71 -205 -76 -8 -2 -62 -20 -120 -39 -58 -20 -112 -38 -120 -40 -15
-3 -127 -36 -185 -54 -16 -5 -77 -21 -135 -36 -58 -14 -118 -30 -135 -35 -16
-5 -102 -27 -190 -49 -174 -43 -290 -74 -460 -121 -60 -16 -120 -32 -132 -35
-43 -10 -249 -83 -333 -118 -136 -56 -397 -193 -500 -262 -99 -66 -176 -135
-226 -201 -16 -21 -31 -41 -34 -44 -25 -24 -102 -213 -114 -280 -2 -14 -5 -25
-6 -25 -1 0 -3 -9 -5 -20 -1 -11 -5 -33 -8 -50 -15 -75 -21 -137 -21 -220 0
-109 8 -173 33 -254 20 -64 98 -211 113 -211 4 0 8 -7 8 -15 0 -8 4 -15 8 -15
10 0 102 -151 102 -167 0 -34 -180 -49 -237 -19 -17 8 -41 29 -53 45 -32 46
-122 221 -113 221 4 0 3 4 -3 8 -11 7 -72 148 -95 217 -14 44 -19 66 -22 108
-1 15 -5 27 -8 27 -3 0 -6 109 -6 243 -1 348 19 464 114 666 52 111 116 205
186 276 58 58 155 135 202 161 139 75 195 104 197 103 2 -1 19 5 38 13 67 29
255 101 255 98 0 -1 7 1 15 4 27 9 155 47 170 51 8 2 62 17 119 34 57 17 108
28 113 25 4 -3 8 -1 8 4 0 5 6 9 13 9 6 0 75 17 152 36 77 20 192 48 255 62
63 15 123 29 133 31 9 2 27 6 40 9 12 3 58 14 102 24 44 11 91 22 105 25 14 2
70 16 125 30 55 15 109 28 120 30 11 2 79 21 150 41 72 20 137 38 145 40 93
23 240 79 350 133 74 37 137 70 140 74 3 4 17 12 30 18 14 6 34 16 45 23 11 7
72 43 135 81 63 39 117 73 118 78 2 4 8 8 14 8 6 0 26 11 44 25 18 14 37 25
43 25 6 0 11 5 11 10 0 6 5 10 10 10 11 0 63 34 88 58 7 6 20 12 28 12 8 0 14
4 14 8 0 4 15 16 33 27 17 10 34 21 37 24 3 3 39 28 80 56 41 27 80 53 85 58
16 12 81 59 140 102 31 22 84 61 118 87 34 27 67 51 72 55 6 5 42 33 80 63 39
30 76 59 83 65 7 5 23 19 35 31 12 11 54 47 92 80 39 32 72 62 75 65 20 22
122 95 154 110 51 23 65 16 60 -28z m926 -759 c0 -45 -44 -149 -107 -252 -18
-29 -33 -55 -33 -59 0 -3 -11 -21 -25 -39 -14 -18 -25 -35 -25 -39 0 -3 -30
-45 -67 -93 -115 -150 -338 -359 -522 -491 -69 -49 -259 -171 -267 -171 -2 0
-21 -11 -42 -23 -53 -34 -180 -99 -186 -95 -2 2 -12 -4 -22 -13 -30 -26 -434
-197 -504 -214 -8 -2 -16 -4 -17 -5 -2 -2 -6 -3 -10 -5 -5 -1 -15 -4 -23 -8
-24 -10 -231 -75 -280 -88 -25 -7 -49 -14 -55 -15 -41 -13 -366 -94 -390 -98
-16 -3 -70 -14 -120 -25 -49 -11 -106 -22 -125 -25 -19 -3 -46 -8 -60 -11 -14
-3 -90 -17 -170 -31 -80 -13 -161 -29 -180 -34 -19 -5 -51 -11 -70 -14 -19 -3
-87 -17 -150 -32 -63 -14 -123 -27 -133 -29 -9 -2 -21 -6 -25 -9 -5 -3 -19 -7
-33 -9 -48 -9 -117 -29 -274 -79 -88 -29 -162 -52 -165 -53 -3 -1 -16 -6 -30
-12 -14 -6 -54 -23 -90 -37 -84 -35 -244 -117 -248 -128 -2 -4 -9 -8 -15 -8
-26 0 -149 -125 -202 -204 -86 -131 -142 -269 -174 -436 -23 -118 -22 -103
-23 -240 -2 -147 3 -171 59 -287 19 -40 38 -73 44 -73 5 0 9 -7 9 -15 0 -7 6
-18 13 -22 6 -4 29 -29 50 -55 21 -26 43 -53 50 -60 29 -31 66 -118 74 -175
12 -77 8 -201 -6 -246 -11 -33 -20 -38 -86 -39 -44 -2 -110 19 -126 39 -29 35
-142 280 -154 333 -2 8 -4 16 -4 18 -1 1 0 3 1 5 1 1 -4 13 -11 26 -13 23 -70
183 -76 211 -2 8 -4 16 -5 18 -2 1 -4 7 -5 12 -1 6 -3 12 -4 15 0 3 -1 7 -1
10 0 3 -9 25 -20 50 -11 25 -17 45 -15 45 2 0 -3 21 -11 48 -18 59 -54 197
-62 237 -11 57 -4 240 11 320 4 17 17 101 18 115 0 3 9 41 20 85 11 44 21 89
24 100 27 113 102 278 166 363 106 140 249 241 478 337 36 15 72 29 80 30 9 2
48 15 86 29 122 43 596 159 740 181 26 4 78 13 140 25 28 5 68 12 90 16 22 3
56 9 75 14 19 5 53 11 75 14 22 3 49 7 60 9 11 3 42 8 69 11 27 4 52 9 56 11
4 2 29 7 56 10 27 4 69 11 94 17 25 5 56 11 70 13 27 4 69 11 110 20 14 3 39
7 55 9 17 3 59 11 95 20 36 8 76 17 90 19 14 3 45 10 70 17 25 7 50 13 55 14
6 1 26 7 45 13 19 6 69 21 110 34 183 54 425 160 619 271 46 26 85 48 87 48 4
0 276 163 324 194 19 13 67 42 105 66 192 119 349 222 353 232 2 4 8 8 13 8
11 0 192 129 364 259 113 85 204 141 233 141 7 0 12 -14 12 -36z m-1107 -236
c29 -15 37 -27 37 -61 0 -44 -27 -74 -129 -141 -99 -66 -435 -256 -452 -256
-5 0 -9 -4 -9 -10 0 -5 -9 -10 -19 -10 -11 0 -21 -4 -23 -8 -3 -7 -287 -150
-368 -185 -19 -8 -52 -17 -72 -20 -32 -4 -36 -3 -29 12 5 9 49 41 98 71 48 30
90 58 91 62 2 5 9 8 15 8 11 0 85 45 113 68 5 5 21 15 34 22 13 7 29 17 34 21
22 18 103 76 148 107 25 18 52 38 60 44 7 7 31 26 53 43 22 16 45 34 51 40 44
42 186 145 234 170 65 34 101 40 133 23z m977 -764 c31 -83 30 -171 -3 -251
-31 -75 -30 -74 -142 -185 -95 -94 -122 -118 -130 -118 -4 0 -81 -55 -112 -80
-7 -5 -34 -22 -60 -36 -26 -15 -55 -32 -63 -39 -21 -17 -224 -118 -290 -145
-30 -12 -64 -26 -75 -31 -105 -47 -517 -165 -671 -193 -16 -2 -40 -7 -54 -10
-104 -23 -138 -30 -155 -32 -11 -2 -27 -5 -35 -7 -8 -2 -37 -8 -65 -12 -56
-10 -64 -12 -67 -14 -2 -2 -16 -4 -33 -6 -32 -4 -123 -19 -190 -31 -22 -4 -51
-9 -65 -10 -14 -1 -56 -5 -95 -9 -75 -8 -115 -8 -124 0 -16 16 14 156 43 196
14 20 56 47 86 55 8 2 46 13 84 23 37 11 86 23 107 26 22 3 57 12 79 20 22 8
41 14 43 13 10 -4 476 154 552 188 17 7 82 34 145 59 115 46 381 172 390 185
3 4 20 15 39 25 19 9 39 21 45 26 6 6 40 28 76 51 65 41 371 257 380 269 7 8
202 143 220 152 8 4 26 14 40 22 23 14 27 13 51 -14 15 -16 37 -55 49 -87z
m-177 -910 c28 -16 56 -81 50 -117 -11 -75 -110 -199 -242 -307 -24 -19 -48
-39 -55 -45 -71 -63 -227 -147 -358 -193 -84 -30 -298 -85 -369 -96 -20 -3
-42 -7 -50 -10 -8 -3 -32 -7 -54 -10 -22 -3 -49 -7 -60 -10 -11 -2 -40 -7 -65
-11 -25 -4 -54 -9 -64 -11 -11 -2 -42 -6 -70 -9 -28 -3 -58 -8 -66 -10 -15 -4
-94 -15 -155 -21 -16 -1 -50 -6 -75 -9 -77 -10 -141 -15 -260 -19 -143 -5
-170 7 -186 79 -1 6 -7 30 -12 54 -6 25 -9 48 -6 52 2 4 1 10 -3 12 -5 3 -8
29 -8 58 l0 53 55 13 c30 7 75 15 100 17 25 3 54 7 65 9 19 5 87 15 150 23 39
5 81 12 185 31 47 8 96 17 110 20 20 3 114 24 220 48 77 17 296 77 311 85 10
6 19 8 19 5 0 -3 16 1 35 9 19 8 35 12 35 9 0 -3 6 -1 13 4 10 8 41 19 77 27
10 3 156 59 215 84 33 13 123 56 200 94 208 103 268 121 318 92z m-2483 -124
c0 -14 -53 -123 -67 -138 -7 -7 -13 -18 -13 -24 0 -21 -82 -119 -108 -130 -26
-10 -137 -34 -197 -42 -16 -3 -43 -7 -60 -10 -16 -3 -55 -8 -85 -11 -30 -3
-68 -8 -85 -10 -37 -5 -121 -14 -195 -21 -30 -2 -71 -6 -90 -8 -19 -2 -66 -7
-105 -11 -38 -3 -90 -9 -115 -11 -25 -3 -63 -7 -85 -9 -22 -2 -62 -6 -90 -10
-105 -12 -151 -14 -183 -7 -30 7 -31 8 -18 27 14 21 141 88 226 120 101 39
365 122 413 131 17 3 34 7 39 10 4 3 16 7 25 9 10 2 65 15 123 29 58 14 161
36 230 50 119 24 149 29 230 42 19 2 46 7 60 9 14 3 47 7 75 10 27 4 52 8 54
11 8 8 21 4 21 -6z m-2465 -92 c-18 -81 -72 -218 -87 -218 -11 0 -10 5 13 84
21 70 64 166 75 166 3 0 2 -15 -1 -32z m2563 -486 c23 -46 42 -97 42 -113 0
-47 -78 -118 -190 -172 -63 -31 -82 -36 -160 -42 -30 -2 -64 -6 -75 -8 -19 -4
-140 -14 -282 -23 -195 -12 -598 -28 -1003 -39 -74 -2 -135 -5 -135 -5 0 -8
-88 -3 -94 5 -5 5 -7 45 -6 88 4 101 25 144 85 174 54 28 84 31 310 38 302 9
498 18 628 30 37 3 92 8 122 11 30 2 71 7 90 9 19 2 58 7 85 10 63 8 102 13
220 31 80 12 200 48 233 70 61 42 80 32 130 -64z m1429 -360 c46 -7 53 -96 12
-176 -25 -51 -115 -150 -189 -209 -42 -33 -140 -83 -140 -71 0 3 -6 2 -12 -2
-14 -9 -21 -10 -133 -19 -160 -13 -568 -21 -625 -12 -76 13 -79 15 -101 91
-11 39 -23 80 -27 91 -3 11 -7 23 -8 28 -1 4 -3 9 -4 12 -1 3 -3 8 -4 13 -2 4
-8 26 -15 50 -11 41 -8 81 7 83 4 1 25 2 47 4 52 4 152 14 190 19 17 2 61 7
98 11 37 3 77 8 87 10 10 2 50 7 87 10 37 4 77 9 88 11 11 2 43 6 70 9 28 3
68 8 90 11 22 4 51 7 65 9 14 1 54 6 90 10 36 4 77 9 92 10 15 1 30 3 32 6 4
4 177 5 203 1z m-1519 -235 c39 -30 66 -127 51 -179 -19 -67 -122 -142 -224
-164 -107 -23 -205 -31 -465 -40 -182 -6 -183 -6 -215 -4 -11 1 -117 1 -235 1
-118 -1 -219 -1 -225 -1 -5 1 -62 1 -125 1 l-115 0 -84 89 c-139 150 -170 197
-143 214 25 15 197 25 692 40 691 22 916 34 1010 55 37 8 56 5 78 -12z m-2570
-308 c3 -2 19 -6 31 -8 23 -3 63 -52 89 -112 16 -35 30 -67 31 -71 1 -4 4 -13
6 -20 35 -95 48 -140 52 -178 4 -40 1 -49 -23 -73 -14 -15 -31 -27 -36 -27 -7
0 -69 -38 -103 -62 -5 -4 -77 -58 -160 -120 -145 -108 -162 -121 -188 -143 -7
-6 -54 -43 -106 -83 l-94 -72 -33 25 c-19 15 -47 38 -62 52 -15 14 -63 53
-107 86 -44 32 -84 66 -89 75 -13 22 15 62 108 156 113 114 182 192 333 381
44 55 93 113 109 129 31 30 110 70 124 61 5 -3 11 -2 13 2 4 7 96 8 105 2z
m3462 -213 c176 -8 283 -19 311 -30 24 -10 42 -51 35 -79 -13 -52 -114 -125
-196 -141 -14 -3 -36 -7 -50 -11 -116 -25 -527 -25 -745 1 -153 18 -309 63
-324 93 -24 47 32 118 107 136 10 3 35 9 57 14 22 6 81 13 130 17 50 3 91 7
92 8 5 4 468 -3 583 -8z m-1353 -139 c113 -29 150 -103 104 -209 -25 -59 -69
-103 -130 -131 -39 -17 -66 -21 -176 -21 -71 0 -146 3 -165 6 -19 4 -55 10
-80 13 -77 11 -341 66 -416 86 -116 32 -184 72 -199 118 -3 11 -1 38 5 60 16
59 51 68 300 77 91 4 166 7 167 8 5 4 571 -2 590 -7z m547 -368 c34 -6 78 -13
99 -15 21 -2 53 -5 71 -8 18 -3 95 -8 172 -11 225 -9 244 -14 244 -65 0 -41
-73 -116 -166 -171 -79 -47 -205 -98 -250 -101 -13 -1 -24 -5 -24 -8 0 -13
-264 -19 -330 -7 -60 10 -94 18 -115 24 -11 4 -23 7 -27 8 -3 0 -9 3 -13 7 -4
4 -13 4 -21 1 -8 -3 -14 -1 -14 5 0 5 -15 13 -32 16 -18 4 -51 15 -73 25 l-40
18 110 110 c199 197 222 207 409 172z m-1704 -113 c86 -6 105 -9 195 -26 89
-17 99 -19 140 -30 22 -6 47 -13 55 -15 8 -2 16 -4 18 -5 1 -2 5 -3 10 -5 4
-1 14 -4 22 -7 8 -3 38 -14 65 -23 118 -42 229 -110 318 -197 67 -65 84 -113
93 -265 7 -115 6 -320 -1 -363 -3 -17 -7 -45 -10 -62 -3 -18 -8 -46 -11 -63
-8 -37 -54 -139 -66 -143 -4 -2 -8 -8 -8 -14 0 -21 -99 -112 -174 -162 -43
-28 -81 -51 -85 -51 -3 -1 -19 -8 -36 -17 -26 -13 -48 -21 -100 -34 -103 -26
-248 -34 -595 -33 -267 0 -359 3 -406 13 -16 3 -49 8 -74 11 -74 11 -113 34
-125 78 -2 4 -3 8 -5 10 -5 6 -16 68 -25 142 -9 76 -11 84 -18 91 -4 4 -7 22
-7 41 0 18 -5 33 -11 33 -5 0 -8 4 -5 9 5 8 -30 118 -72 226 -29 75 -80 179
-138 285 -28 52 -53 104 -55 115 -6 36 21 79 84 132 34 29 76 64 92 78 44 38
215 150 255 168 64 28 150 57 183 61 17 3 43 7 57 10 14 3 66 9 115 12 50 4
91 7 92 8 4 3 145 -2 233 -8z m-2004 -270 c88 -47 117 -67 223 -150 391 -305
565 -616 576 -1032 5 -181 -4 -216 -71 -266 -27 -21 -65 -45 -84 -54 -19 -10
-37 -20 -40 -23 -3 -3 -32 -24 -65 -45 -69 -45 -288 -197 -295 -206 -3 -3 -54
-42 -115 -85 -60 -44 -111 -83 -113 -87 -2 -5 -10 -8 -18 -8 -8 0 -14 -4 -14
-10 0 -5 -4 -10 -9 -10 -5 0 -35 -17 -67 -39 -33 -21 -75 -47 -94 -57 -19 -10
-42 -25 -52 -32 -9 -7 -22 -15 -30 -16 -7 -1 -33 -12 -58 -23 -41 -19 -142
-55 -165 -59 -5 -1 -35 -7 -65 -13 -91 -19 -103 -21 -140 -27 -19 -3 -45 -7
-56 -9 -113 -18 -229 -22 -334 -10 -36 4 -76 8 -90 9 -23 3 -73 10 -145 23
-16 3 -41 6 -55 8 -14 1 -35 5 -47 9 -11 4 -34 9 -49 11 -16 2 -63 13 -104 24
-41 12 -106 30 -145 40 -38 10 -117 35 -175 55 -58 20 -114 38 -124 41 -18 4
-117 40 -181 66 -16 7 -32 13 -35 13 -7 2 -67 26 -115 46 -159 69 -203 89
-310 142 -122 61 -242 135 -281 174 -29 28 -55 79 -58 112 -6 63 75 194 132
213 32 10 187 8 357 -5 201 -16 302 -20 455 -21 226 0 270 8 403 70 44 21 284
202 343 259 6 6 35 31 64 56 28 25 67 59 85 75 18 17 65 59 105 95 103 93 113
101 244 224 65 61 132 123 150 137 17 15 52 47 78 71 50 47 80 72 153 133 26
22 55 47 64 56 29 29 186 146 216 161 33 18 63 11 151 -36z"/>
</g>
</svg>
